<svg width="299" height="54" viewBox="0 0 299 54" fill="none" xmlns="http://www.w3.org/2000/svg">
<g clip-path="url(#clip0)">
<path d="M146.941 3.38037C144.73 3.38037 142.985 5.12881 142.985 7.11037C142.985 9.2085 144.73 10.9569 146.941 10.9569C149.035 10.9569 150.896 9.2085 150.896 7.11037C150.896 5.01225 149.151 3.38037 146.941 3.38037Z" fill="#EF4066"/>
<path d="M145.545 43.4777H148.453C149.617 43.4777 150.431 42.7784 150.431 41.4962V17.7174C150.431 16.5518 149.617 15.7358 148.453 15.7358H145.545C144.381 15.7358 143.567 16.5518 143.567 17.7174V41.4962C143.567 42.7784 144.265 43.4777 145.545 43.4777Z" fill="#EF4066"/>
<path d="M19.4292 42.6617C19.6619 42.312 19.6619 41.8458 19.5455 41.263L18.9638 39.2814C18.7311 38.2323 17.9167 37.8826 16.7533 38.1158C16.5206 38.1158 14.5428 38.582 12.6813 38.582C8.72568 38.582 6.8642 36.4839 6.8642 32.1711V27.1589C6.8642 22.7295 8.72568 20.7479 12.6813 20.7479C14.3101 20.7479 15.4735 20.9811 16.7533 21.2142C17.335 21.3308 17.8004 21.3308 18.1494 21.0976C18.6148 20.8645 18.8475 20.3983 18.9638 19.8154L19.4292 18.1836C19.5455 17.6008 19.5455 17.0179 19.3128 16.6683C19.0802 16.3186 18.6148 15.9689 18.0331 15.8523C16.1716 15.3861 14.4265 15.1529 12.0996 15.1529C4.30467 15.0364 0 19.3492 0 27.1589V32.1711C0 39.9808 4.30467 44.2936 12.216 44.2936C15.0082 44.2936 16.637 43.9439 18.2658 43.5942C18.8475 43.3611 19.1965 43.0114 19.4292 42.6617Z" fill="#EF4066"/>
<path d="M33.5068 15.0366C26.4099 15.0366 21.7562 19.8157 21.7562 27.1591V32.1713C21.7562 39.5148 26.4099 44.2938 33.5068 44.2938C40.6037 44.2938 45.2574 39.5148 45.2574 32.1713V27.1591C45.2574 19.8157 40.6037 15.0366 33.5068 15.0366ZM38.5095 31.8216C38.5095 36.251 36.8807 38.5823 33.5068 38.5823C30.2492 38.5823 28.5041 36.3676 28.5041 31.8216V27.3923C28.5041 25.7604 28.5041 20.6316 33.5068 20.6316C36.7644 20.6316 38.5095 22.8463 38.5095 27.3923V31.8216Z" fill="#EF4066"/>
<path d="M71.3182 26.5763C71.3182 19.5826 66.8972 15.0366 60.033 15.0366C53.1688 15.0366 48.7478 19.5826 48.7478 26.5763V41.4963C48.7478 42.6619 49.4459 43.4779 50.7256 43.4779H53.5178C54.6813 43.4779 55.4957 42.7785 55.4957 41.4963V26.926C55.4957 22.9629 57.1244 20.7482 60.033 20.7482C62.8252 20.7482 64.454 22.9629 64.454 26.926V41.6129C64.454 42.7785 65.1521 43.5945 66.4318 43.5945H69.3404C70.5038 43.5945 71.3182 42.8951 71.3182 41.6129V26.5763Z" fill="#EF4066"/>
<path d="M161.367 3.84644C161.25 3.84644 161.134 3.84644 161.018 3.84644L158.226 4.31269C156.946 4.54581 156.248 5.36175 156.248 6.64394V41.6127C156.248 42.7783 156.946 43.5943 158.226 43.5943H161.134C162.298 43.5943 163.112 42.8949 163.112 41.6127V5.828C163.112 5.24519 162.879 4.66237 162.53 4.31269C162.298 4.07956 161.832 3.84644 161.367 3.84644Z" fill="#EF4066"/>
<path d="M201.971 15.7358H199.062C197.899 15.7358 197.084 16.5518 197.084 17.7174V32.6374C197.084 39.6312 201.506 44.1771 208.37 44.1771C215.234 44.1771 219.655 39.6312 219.655 32.6374V17.7174C219.655 16.5518 218.957 15.7358 217.677 15.7358H214.769C213.605 15.7358 212.791 16.4352 212.791 17.7174V32.2877C212.791 36.2509 211.162 38.4655 208.37 38.4655C206.974 38.4655 203.949 37.8827 203.949 32.2877V17.7174C203.832 16.5518 203.134 15.7358 201.971 15.7358Z" fill="#812990"/>
<path d="M230.707 4.31269C230.358 4.07956 229.893 3.84644 229.427 3.84644C229.311 3.84644 229.194 3.84644 229.078 3.84644L226.519 4.19612C225.239 4.42925 224.541 5.12862 224.541 6.41081V32.6374C224.541 39.398 229.311 44.1771 236.059 44.1771C242.807 44.1771 247.577 39.398 247.577 32.6374V26.5761C247.577 18.5333 242.109 15.0364 236.757 15.0364C236.64 15.0364 236.524 15.0364 236.408 15.0364H236.291H236.175C234.779 15.153 233.616 16.3186 233.616 17.8339C233.616 19.3493 234.779 20.6314 236.291 20.6314H236.408C238.037 20.748 240.712 21.7971 240.712 26.8093V32.2877C240.712 36.8337 238.269 38.4655 236.059 38.4655C233.266 38.4655 231.521 36.2508 231.405 32.754V32.6374V5.71144C231.172 5.12862 231.056 4.66237 230.707 4.31269Z" fill="#812990"/>
<path d="M186.846 43.4779H189.754C190.918 43.4779 191.732 42.7785 191.732 41.4963V25.9935C191.732 19.1163 187.893 15.0366 181.378 15.0366C181.261 15.0366 181.145 15.0366 181.029 15.0366C181.029 15.0366 181.029 15.0366 180.912 15.0366H180.796C179.4 15.1532 178.353 16.4354 178.353 17.8341C178.353 19.3494 179.516 20.5151 181.029 20.6316H181.145C183.704 20.8648 184.868 22.7298 184.868 26.3432V41.3798C184.868 42.7785 185.566 43.4779 186.846 43.4779Z" fill="#812990"/>
<path d="M100.986 44.1774C106.919 44.1774 111.805 39.9811 111.805 34.7358V25.1777C111.805 19.1164 107.384 14.9202 100.869 14.9202C97.9608 14.9202 95.0522 15.7361 94.0051 15.9692H93.7724C92.7254 16.3189 92.0273 17.368 92.3763 18.5336L92.7254 19.9324C92.8417 20.5152 93.1907 20.9814 93.5398 21.2145C94.0051 21.4477 94.4705 21.5642 95.0522 21.3311C96.4483 20.9814 98.6588 20.5152 100.869 20.5152C103.429 20.5152 104.941 22.2636 104.941 25.0611V34.6192C104.941 36.4842 103.429 38.3493 100.986 38.3493C98.3098 38.3493 97.1464 36.4842 97.1464 34.5027C97.1464 32.1714 98.4261 30.7727 100.637 30.6561H100.753C101.916 30.6561 102.963 29.6071 102.963 28.4414C102.963 27.1592 101.916 26.2267 100.753 26.2267H100.637H100.52C97.03 26.2267 94.1215 27.1592 92.3763 28.9077C90.9802 30.3064 90.2822 32.288 90.2822 34.6192C90.1658 40.2143 94.8195 44.1774 100.986 44.1774Z" fill="#EF4066"/>
<path d="M104.824 3.84633C104.359 3.61321 103.777 3.84633 103.312 3.96289L95.4007 7.45977C94.819 7.6929 93.7719 8.39227 94.2373 9.44134L94.819 10.4904C95.0517 11.0732 95.5171 11.7726 97.1459 11.1898L104.941 8.15915C105.523 7.92602 105.988 7.57633 106.104 7.22665C106.221 6.87696 106.221 6.52727 105.988 6.06102L105.523 4.66227C105.29 4.31258 105.057 3.96289 104.824 3.84633Z" fill="#EF4066"/>
<path d="M122.16 4.31269C121.811 4.07956 121.345 3.84644 120.88 3.84644C120.764 3.84644 120.647 3.84644 120.531 3.84644L117.971 4.19612C116.692 4.42925 115.994 5.12862 115.994 6.41081V32.6374C115.994 39.398 120.764 44.1771 127.511 44.1771C134.259 44.1771 139.029 39.398 139.029 32.6374V26.5761C139.029 18.5333 133.561 15.0364 128.209 15.0364C128.093 15.0364 127.977 15.0364 127.86 15.0364H127.744H127.628C126.232 15.153 125.068 16.3186 125.068 17.8339C125.068 19.3493 126.232 20.6314 127.744 20.6314H127.86C129.489 20.748 132.165 21.7971 132.165 26.8093V32.2877C132.165 36.8337 129.722 38.4655 127.511 38.4655C124.719 38.4655 122.974 36.2508 122.858 32.754V32.6374V5.71144C122.625 5.12862 122.509 4.66237 122.16 4.31269Z" fill="#EF4066"/>
<path d="M89.0017 41.3797C89.0017 39.8644 87.722 38.5822 86.2095 38.5822C83.8827 38.5822 81.5558 36.9504 81.5558 32.4044V17.1347C81.5558 16.9016 81.7885 16.6685 82.0212 16.6685H86.5586C87.3729 16.6685 87.9547 16.0856 87.9547 15.2697V13.055C87.9547 12.2391 87.3729 11.6563 86.5586 11.6563H82.0212C81.7885 11.6563 81.5558 11.4231 81.5558 11.19V5.71157C81.5558 5.12876 81.3231 4.66251 80.9741 4.42939C80.6251 4.0797 80.1597 3.96313 79.6944 3.96313C79.578 3.96313 79.4617 3.96313 79.3453 3.96313L76.7858 4.31282C75.506 4.54595 74.808 5.24532 74.808 6.52751V32.6375C74.808 39.3982 79.578 44.1772 86.3259 44.1772C86.3259 44.1772 86.3259 44.1772 86.4422 44.1772C87.722 44.1772 89.0017 42.895 89.0017 41.3797Z" fill="#EF4066"/>
<path d="M174.164 3.84644C174.048 3.84644 173.932 3.84644 173.815 3.84644L171.023 4.31269C169.743 4.54581 169.045 5.36175 169.045 6.64394V41.6127C169.045 42.7783 169.743 43.5943 171.023 43.5943H173.932C175.095 43.5943 175.91 42.8949 175.91 41.6127V5.828C175.91 5.24519 175.677 4.66237 175.328 4.31269C175.095 4.07956 174.63 3.84644 174.164 3.84644Z" fill="#812990"/>
<path d="M277.593 35.4349L268.751 26.5762L263.748 31.5884C258.862 36.484 258.862 44.4102 263.748 49.3059C268.634 54.2015 276.546 54.2015 281.432 49.3059L295.393 35.3184C290.39 40.3305 282.479 40.3305 277.593 35.4349Z" fill="#EF4066"/>
<path d="M263.632 3.73014C258.746 8.62577 258.746 16.552 263.632 21.4477L268.635 26.4599L277.477 17.6011C282.363 12.7055 290.275 12.7055 295.161 17.6011L281.2 3.61358C276.43 -1.28205 268.518 -1.28205 263.632 3.73014Z" fill="#A3238E"/>
<path d="M277.593 17.6007L268.751 26.4594L277.593 35.3182C282.479 40.2138 290.391 40.2138 295.277 35.3182C300.163 30.4226 300.163 22.4963 295.277 17.6007C290.391 12.705 282.479 12.705 277.593 17.6007Z" fill="#812990"/>
</g>
<defs>
<clipPath id="clip0">
<rect width="299" height="53.036" fill="white"/>
</clipPath>
</defs>
</svg>
